<svg className="icon_activity_logged_in" width="20px" height="18px" viewBox="0 0 20 18" version="1.1" xmlns="http://www.w3.org/2000/svg" >
                        <title>icon_activity_logged_out</title>
                        <desc>Created with Sketch.</desc>
                        <defs></defs>
                        <g id="Activty-icons" stroke="none" strokeWidth="1" fill="none" fillRule="evenodd">
                            <path d="M-4,-6 L27,-6 L27,26 L-4,26 L-4,-6 Z M-127,47 L-96,47 L-96,79 L-127,79 L-127,47 Z M-159,94 L-128,94 L-128,126 L-159,126 L-159,94 Z M-84,201 L-39,201 L-39,325 L-84,325 L-84,201 Z" id="Stroke-88" stroke="#000000" ></path>
                            <g id="Imported-Layers"  transform="translate(-451.000000, -79.000000)" stroke="#000000" strokeWidth="2">
                                <path d="M362,96 L380,96 L380,84 L362,84 L362,96 Z M424,96 L442,96 L442,84 L424,84 L424,96 Z M452,92 L470,92 L470,80 L452,80 L452,92 Z" id="Stroke-77" strokeLinecap="square" ></path>
                                <path d="M452,96 L470,96 M461,96 L461,92 M330,149 L348,149" id="Stroke-87" strokeLinecap="square" ></path>
                            </g>
                        </g>
                    </svg>