<?xml version="1.0" standalone="no"?> 
<!DOCTYPE svg PUBLIC "-//W3C//DTD SVG 1.1//EN" "http://www.w3.org/Graphics/SVG/1.1/DTD/svg11.dtd" >
<svg xmlns="http://www.w3.org/2000/svg">
<defs>
  <font id="symbols" horiz-adv-x="560">
    <font-face font-family="symbols"
      units-per-em="560" ascent="560"
      descent="0" />
    <missing-glyph horiz-adv-x="0" />
    <glyph glyph-name="icon-account"
      unicode="&#xEA01;"
      horiz-adv-x="560" d=" M420 190C420 173.46 406.55 160 390.01 160L169.99 160C153.45 160 140 173.46 140 190L140 330C140 346.54 153.45 360 169.99 360L390.01 360C406.55 360 420 346.54 420 330L420 190L420 190zM239.99 400L320.01 400C331.03 400 340 391.03 340 380L220 380C220 391.03 228.97 400 239.99 400L239.99 400zM390.01 380L360 380C360 402.06 342.06 420 320.01 420L239.99 420C217.94 420 200 402.06 200 380L169.99 380C142.43 380 120 357.57 120 330L120 190C120 162.43 142.43 140 169.99 140L390.01 140C417.57 140 440 162.43 440 190L440 330C440 357.57 417.57 380 390.01 380L390.01 380z M190 270L370 270L370 290L190 290z M190 230L370 230L370 250L190 250z" />
    <glyph glyph-name="icon-activity"
      unicode="&#xEA02;"
      horiz-adv-x="560" d=" M231 320L391 320L401 320L401 300L391 300L231 300L221 300L221 320L231 320zM235.444444 260L386.555556 260L401 260L401 240L386.555556 240L235.444444 240L221 240L221 260L235.444444 260zM231 200L391 200L401 200L401 180L391 180L231 180L221 180L221 200L231 200zM155.444444 380L386.555556 380L401 380L401 360L386.555556 360L155.444444 360L141 360L141 380L155.444444 380z" />
    <glyph glyph-name="icon-all-account-activity"
      unicode="&#xEA03;"
      horiz-adv-x="560" d=" M292.015754 453.336426C286.795609 448.494982 282.093249 443.103029 278.000984 437.252877C272.31845 439.0377660000001 266.271596 440 260 440C226.862915 440 200 413.137085 200 380C200 346.862915 226.862915 320 260 320C266.271596 320 272.31845 320.962234 278.000987 322.747118C282.093249 316.896971 286.795609 311.505018 292.015747 306.663581C282.212197 302.377705 271.3837700000001 300 260 300C215.81722 300 180 335.81722 180 380C180 424.18278 215.81722 460 260 460C271.3837700000001 460 282.212197 457.622295 292.015747 453.336419L292.015754 453.336426z M280 211.428571C280 236.299852 314.564051 260 360.010129 260C405.438807 260 440 236.298496 440 211.428571L460 211.428571C460 249.298449 415.231439 280 360.010129 280C327.290508 280 298.245028 269.229277 280 252.577824L280 211.428571z M360 320C393.137085 320 420 346.862915 420 380C420 413.137085 393.137085 440 360 440C326.862915 440 300 413.137085 300 380C300 346.862915 326.862915 320 360 320zM360 300C315.81722 300 280 335.81722 280 380C280 424.18278 315.81722 460 360 460C404.18278 460 440 424.18278 440 380C440 335.81722 404.18278 300 360 300z M120 280L240 280C251.045695 280 260 271.045695 260 260L260 120C260 108.954305 251.045695 100 240 100L120 100C108.954305 100 100 108.954305 100 120L100 260C100 271.045695 108.954305 280 120 280zM120 260L120 120L240 120L240 260L120 260zM220 240L180 240L180 220L220 220L220 240zM160 240L140 240L140 220L160 220L160 240zM220 200L180 200L180 180L220 180L220 200zM160 200L140 200L140 180L160 180L160 200zM220 160L180 160L180 140L220 140L220 160zM160 160L140 160L140 140L160 140L160 160z" />
    <glyph glyph-name="icon-all-file-activity"
      unicode="&#xEA04;"
      horiz-adv-x="560" d=" M170 300L150 300L150 400C234.774049 399.790097757 277.758176 399.790097757 278.952381 400C286.8689500000001 400 303.884824 393.33333333 330 380L410 380C432.09139 380 450 362.09139 450 340L450 200C450 177.90861 432.09139 160 410 160L290 160L290 180L410 180C421.045695 180 430 188.954305 430 200L430 320L170 320L170 300zM170 340L430 340C430 351.045695 421.045695 360 410 360L325.189751 360L320.90558 362.1873212C308.38632 368.5791394000001 298.166723 373.3179979 290.355867 376.3782216C286.750519 377.7907644 283.752297 378.8077284 281.429642 379.4287813C280.479149 379.6829329 279.701168 379.8546149 279.11977 379.9496948C270.036276 379.7725758000001 242.89032 379.7786087 170 379.9513577L170 340z M130 280L250 280C261.045695 280 270 271.045695 270 260L270 120C270 108.954305 261.045695 100 250 100L130 100C118.954305 100 110 108.954305 110 120L110 260C110 271.045695 118.954305 280 130 280zM130 260L130 120L250 120L250 260L130 260zM230 240L190 240L190 220L230 220L230 240zM170 240L150 240L150 220L170 220L170 240zM230 200L190 200L190 180L230 180L230 200zM170 200L150 200L150 180L170 180L170 200zM230 160L190 160L190 140L230 140L230 160zM170 160L150 160L150 140L170 140L170 160z" />
    <glyph glyph-name="icon-apps-websites"
      unicode="&#xEA05;"
      horiz-adv-x="560" d=" M340 420L340 340L320 340L320 360L140 360L140 220L180 220L180 200L120 200L120 420L340 420zM140 400L140 380L320 380L320 400L140 400zM400 280C400 291.045695 391.045695 300 380 300L240 300C228.954305 300 220 291.045695 220 280L220 140C220 128.954305 228.954305 120 240 120L380 120C391.045695 120 400 128.954305 400 140L400 280zM420 280L420 140C420 117.90861 402.09139 100 380 100L240 100C217.90861 100 200 117.90861 200 140L200 280C200 302.09139 217.90861 320 240 320L380 320C402.09139 320 420 302.09139 420 280z" />
    <glyph glyph-name="icon-backarrow"
      unicode="&#xEA06;"
      horiz-adv-x="560" d=" M159 290L149 290L149 270L159 270L410 270L420 270L420 290L410 290z M142.928932 287.0710680000001L135.857864 280L150 265.857864L157.071068 272.928932L277.0710680000001 392.9289320000001L284.142136 400L270 414.142136L262.928932 407.071068z M262.928932 152.928932L270 145.857864L284.142136 160L277.0710680000001 167.071068L157.071068 287.0710680000001L150 294.142136L135.857864 280L142.928932 272.928932z" />
    <glyph glyph-name="icon-big-help"
      unicode="&#xEA07;"
      horiz-adv-x="560" d=" M124.8728292 406.260576C64.9552006 332.825224 65.0425173 226.759299 125.1347795 153.419051L126.1418833 154.426155L176.055303 204.339574L190.197439 218.48171L218.48171 190.197439L204.339574 176.055303L154.426155 126.141883L153.419051 125.13478C226.744048 65.055014 332.781112 64.955239 406.214759 124.835457L359.320743 171.729473L345.178607 185.871609L373.462879 214.15588L387.605014 200.013745L434.565107 153.053652C495.044761 226.513214 495.144799 333.012089 434.86522 406.5809490000001L379.119733 350.835462L364.977597 336.693326L336.693326 364.977597L350.835462 379.119733L406.580949 434.8652205C333.027321 495.1323183 226.557311 495.0447996 153.099284 434.6026643L209.289322 378.412626L223.431458 364.270491L195.147186 335.986219L181.005051 350.128355L124.8728292 406.260576L124.8728292 406.260576zM110.2943725 449.7056275C204.020203 543.4314575 355.979797 543.4314575 449.705627 449.7056275C543.431458 355.979797 543.431458 204.020203 449.705627 110.294373C355.979797 16.568542 204.020203 16.568542 110.2943725 110.294373C16.5685425 204.020203 16.5685425 355.979797 110.2943725 449.7056275L110.2943725 449.7056275zM181.836941 378.412626C236.050901 432.6265866 323.949099 432.6265866 378.163059 378.412626C432.37702 324.198666 432.37702 236.300469 378.163059 182.086508C323.949099 127.872548 236.050901 127.872548 181.836941 182.086508C127.6229805 236.300469 127.6229805 324.198666 181.836941 378.412626L181.836941 378.412626zM349.878788 210.370779C388.471777 248.963768 388.471777 311.535366 349.878788 350.128355C311.285799 388.721344 248.714201 388.721344 210.121212 350.128355C171.528223 311.535366 171.528223 248.963768 210.121212 210.370779C248.714201 171.77779 311.285799 171.77779 349.878788 210.370779L349.878788 210.370779z" />
    <glyph glyph-name="icon-big-profile"
      unicode="&#xEA08;"
      horiz-adv-x="560" d=" M202.285693 218.172528C152.438149 245.539091 118.6630728 298.415711 118.6630728 359.158616C118.6630728 447.9911864 190.898407 520 280 520C369.101593 520 441.336927 447.9911864 441.336927 359.158616C441.336927 298.415711 407.561851 245.539091 357.714307 218.172528C447.254349 192.311285 512 122.948287 512 40L478.98221 40L77.8911051 40L48 40C48 122.948287 112.7456511 192.311285 202.285693 218.172528zM97 80L462 80C439.801374 142.292183 367.060626 189 279.5 189C191.939374 189 119.198626 142.292183 97 80zM280 480C213.723523 480 160 426.2718607 160 360C160 293.728139 213.723523 240 280 240C346.276477 240 400 293.728139 400 360C400 426.2718607 346.276477 480 280 480z" />
    <glyph glyph-name="icon-big-signout"
      unicode="&#xEA09;"
      horiz-adv-x="560" d=" M200 506.3435531L200 463.3582526C129.3638061 432.495984 80 362.012759 80 280C80 169.54305 169.54305 80 280 80C390.45695 80 480 169.54305 480 280C480 362.012759 430.636194 432.495984 360.000006 463.3582501L360 506.3435531C453.21539 473.39663 520 384.497506 520 280C520 147.45166 412.54834 40 280 40C147.45166 40 40 147.45166 40 280C40 384.497506 106.7846096 473.39663 199.999999 506.343543zM259.823529 520.772491C259.823529 532.46705288 269.301987 541.9473684211 281 541.9473684211C292.695442 541.9473684211 302.176471 532.46033881 302.176471 520.772491L302.176471 281.016983C302.176471 269.322421 292.698013 259.842105 281 259.842105C269.304558 259.842105 259.823529 269.329135 259.823529 281.016983L259.823529 520.772491z" />
    <glyph glyph-name="icon-close"
      unicode="&#xEA0A;"
      horiz-adv-x="560" d=" M280 240.250246L340.017802 180.232444C350.994394 169.255852 368.7909650000001 169.255852 379.767556 180.232444C390.744148 191.209035 390.744148 209.005606 379.767556 219.982198L319.749754 280L379.767556 340.017802C390.744148 350.994394 390.744148 368.7909650000001 379.767556 379.767556C368.7909650000001 390.744148 350.994394 390.744148 340.017802 379.767556L280 319.749754L219.982198 379.767556C209.005606 390.744148 191.209035 390.744148 180.232444 379.767556C169.255852 368.7909650000001 169.255852 350.994394 180.232444 340.017802L240.250246 280L180.232444 219.982198C169.255852 209.005606 169.255852 191.209035 180.232444 180.232444C191.209035 169.255852 209.005606 169.255852 219.982198 180.232444L280 240.250246zM280 0C125.36027 0 0 125.36027 0 280C0 434.63973 125.36027 560 280 560C434.63973 560 560 434.63973 560 280C560 125.36027 434.63973 0 280 0z" />
    <glyph glyph-name="icon-companyactvity"
      unicode="&#xEA0B;"
      horiz-adv-x="560" d=" M390 320L400 320L400 300L390 300L230 300L220 300L220 320L230 320L390 320zM385.555556 260L400 260L400 240L385.555556 240L154.444444 240L140 240L140 260L154.444444 260L385.555556 260zM390 200L400 200L400 180L390 180L230 180L220 180L220 200L230 200L390 200zM385.555556 380L400 380L400 360L385.555556 360L154.444444 360L140 360L140 380L154.444444 380L385.555556 380z" />
    <glyph glyph-name="icon-companyadmin"
      unicode="&#xEA0C;"
      horiz-adv-x="560" d=" M140 310.000865C140 309.996437 239.997217 310 239.997217 310C239.998346 310 240 389.999135 240 389.999135C240 390.003563 140.002783 390 140.002783 390C140.001654 390 140 310.000865 140 310.000865zM140.002783 410L239.997217 410C251.044449 410 260 401.0540670000001 260 389.999135L260 310.000865C260 298.954692 251.042775 290 239.997217 290L140.002783 290C128.955551 290 120 298.9459330000001 120 310.000865L120 389.999135C120 401.045308 128.957225 410 140.002783 410z M300 310.000865C300 309.996437 399.997217 310 399.997217 310C399.9983460000001 310 400 389.999135 400 389.999135C400 390.003563 300.002783 390 300.002783 390C300.001654 390 300 310.000865 300 310.000865zM300.002783 410L399.997217 410C411.044449 410 420 401.0540670000001 420 389.999135L420 310.000865C420 298.954692 411.042775 290 399.997217 290L300.002783 290C288.955551 290 280 298.9459330000001 280 310.000865L280 389.999135C280 401.045308 288.957225 410 300.002783 410z M300 170.000865C300 169.996437 399.997217 170 399.997217 170C399.9983460000001 170 400 249.999135 400 249.999135C400 250.003563 300.002783 250 300.002783 250C300.001654 250 300 170.000865 300 170.000865zM300.002783 270L399.997217 270C411.044449 270 420 261.054067 420 249.999135L420 170.000865C420 158.954692 411.042775 150 399.997217 150L300.002783 150C288.955551 150 280 158.945933 280 170.000865L280 249.999135C280 261.045308 288.957225 270 300.002783 270z M140 170.000865C140 169.996437 239.997217 170 239.997217 170C239.998346 170 240 249.999135 240 249.999135C240 250.003563 140.002783 250 140.002783 250C140.001654 250 140 170.000865 140 170.000865zM140.002783 270L239.997217 270C251.044449 270 260 261.054067 260 249.999135L260 170.000865C260 158.954692 251.042775 150 239.997217 150L140.002783 150C128.955551 150 120 158.945933 120 170.000865L120 249.999135C120 261.045308 128.957225 270 140.002783 270z" />
    <glyph glyph-name="icon-companyadmin_large"
      unicode="&#xEA0D;"
      horiz-adv-x="560" d=" M100 362.605089C100 354.5443420000001 106.543681 348 114.606246 348L223.393754 348C231.458733 348 238 354.54082 238 362.605089L238 444.394911C238 452.455658 231.456319 459 223.393754 459L114.606246 459C106.541267 459 100 452.45918 100 444.394911L100 362.605089zM114.606246 499L223.393754 499C253.551951 499 278 474.5428065 278 444.394911L278 362.605089C278 332.4475310000001 253.548224 308 223.393754 308L114.606246 308C84.4480493 308 60 332.457193 60 362.605089L60 444.394911C60 474.552469 84.4517764 499 114.606246 499z M346 362.605089C346 354.5443420000001 352.543681 348 360.606246 348L469.393754 348C477.458733 348 484 354.54082 484 362.605089L484 444.394911C484 452.455658 477.456319 459 469.393754 459L360.606246 459C352.541267 459 346 452.45918 346 444.394911L346 362.605089zM360.606246 499L469.393754 499C499.551951 499 524 474.5428065 524 444.394911L524 362.605089C524 332.4475310000001 499.548224 308 469.393754 308L360.606246 308C330.4480490000001 308 306 332.457193 306 362.605089L306 444.394911C306 474.552469 330.451776 499 360.606246 499z M100 142.605089C100 134.544342 106.543681 128 114.606246 128L223.393754 128C231.458733 128 238 134.54082 238 142.605089L238 224.394911C238 232.4556580000001 231.456319 239 223.393754 239L114.606246 239C106.541267 239 100 232.45918 100 224.394911L100 142.605089zM114.606246 279L223.393754 279C253.551951 279 278 254.542807 278 224.394911L278 142.605089C278 112.447531 253.548224 88 223.393754 88L114.606246 88C84.4480493 88 60 112.457193 60 142.605089L60 224.394911C60 254.552469 84.4517764 279 114.606246 279z M346 142.605089C346 134.544342 352.543681 128 360.606246 128L469.393754 128C477.458733 128 484 134.54082 484 142.605089L484 224.394911C484 232.4556580000001 477.456319 239 469.393754 239L360.606246 239C352.541267 239 346 232.45918 346 224.394911L346 142.605089zM360.606246 279L469.393754 279C499.551951 279 524 254.542807 524 224.394911L524 142.605089C524 112.447531 499.548224 88 469.393754 88L360.606246 88C330.4480490000001 88 306 112.457193 306 142.605089L306 224.394911C306 254.552469 330.451776 279 360.606246 279z" />
    <glyph glyph-name="icon-companydevices"
      unicode="&#xEA0E;"
      horiz-adv-x="560" d=" M140 220L140 360L380 360C379.9700000000001 296.564 380.022 249.901 380 220L140 220zM140 200L380 200C379.987 186.673 380.01 180 380 180C220.431 180.117 140 180 140 180L140 200zM139.885 380C127.348 380 120 374.1670000000001 120 360L120 184.15C120 170.03 127.485 160 139.885 160L379.871 160C392.38 160 400 165.833 400 180L400 200L400 220L400 360C400 374.1670000000001 392.2440000000001 380 379.871 380L139.885 380z M199.881576 140L319.874612 140L319.874612 120L199.881576 120z M160.113787 400C160.113787 414.166616 167.462272 420 180 420L419.999995 420C432.373913 420 440.130038 414.166616 440.130038 400L440.130038 220C440.130038 205.833384 432.509726 200 420 200L420 400L160.113787 400z" />
    <glyph glyph-name="icon-companyfiles"
      unicode="&#xEA0F;"
      horiz-adv-x="560" d=" M119.97 320C119.97 335.33 119.97 349.3400000000001 119.96 359.9600000000001C124.19 359.95 203.53 359.82 209.02 360.02C209.05 359.93 209.08 359.89 209.11 359.88C210.11 359.66 211.43 359.29 213.02 358.78C216.3 357.7200000000001 220.39 356.17 225.06 354.21C226.91 353.43 228.84 352.6 230.82 351.7200000000001C235.52 349.63 240.33 347.38 244.95 345.14C246.57 344.35 248.05 343.62 249.35 342.9700000000001C249.8 342.74 250.2 342.54 250.91 342.19L255.19 340L360 340C371.05 340 380 331.05 380 320.01L249.985 320.005L119.97 320zM380 199.99C380 188.95 371.05 180 360.01 180L139.99 180C128.95 180 120 188.96 120 200C120 200 119.99 251.93 119.98 300L380 300L380 199.99zM260 360C260 360 220.83 380 208.95 380C207.61 379.77 100 380 100 380L100 200C100 177.91 117.91 160 139.99 160L360.01 160C382.09 160 400 177.9 400 199.99L400 320.01C400 342.0900000000001 382.1 360 360 360L260 360z M420.000011 205.347669C431.954335 212.260866 440 225.184301 440 239.99L440 360.01C440 382.0900000000001 422.1 400 400 400L300 400C300 400 260.8300000000001 420 248.95 420C247.61 419.77 140 420 140 420L140 400L230 400C240.002327 399.9332465 247.466771 399.9634161 249.02 400.02C250.11 399.66 251.43 399.29 253.02 398.78C256.3 397.7200000000001 260.39 396.17 265.06 394.2100000000001C266.91 393.43 268.8400000000001 392.6 270.82 391.7200000000001C275.52 389.63 280.3300000000001 387.38 284.95 385.14C286.57 384.35 288.05 383.62 289.35 382.9700000000001C289.8 382.74 290.2 382.54 290.91 382.19L295.19 380L400 380C411.05 380 420 371.05 420 360.01L420.000011 205.347669z" />
    <glyph glyph-name="icon-companywebsites"
      unicode="&#xEA10;"
      horiz-adv-x="560" d=" M160 400L160 420L440 420L440 180L420 180L420 400z M120 140L400 140L400 380L120 380L120 140zM140 160.07L140 360L380 360L380 160.07M140 340L380 340L380 320L140 320L140 340z" />
    <glyph glyph-name="icon-devices"
      unicode="&#xEA11;"
      horiz-adv-x="560" d=" M410.9 200L324.54 200L235.44 200L150 200C135.84 200 120.14 214.94 120.14 230.08L120 412.54C120 427.74 131.62 440 145.94 440L414.12 440C428.26 440 440 427.74 440 412.54L440.12 230.08C440.12 214.88 425.18 200 410.9 200zM140 220L420 220L420 420L140 420L140 220zM140 260L420 260L420 240L140 240L140 260z M320 170L336.5 170C338.28 170 340 168.609661 340 166.5L340 153.028721C340 151.065274 339.96 150 338.04 150L224.98 150C223.24 150 220 150.939948 220 153.028721L220 166.5C220 168.484334 221.6 170 223.5 170L240 170L320 170z" />
    <glyph glyph-name="icon-directory"
      unicode="&#xEA12;"
      horiz-adv-x="560" d=" M100 290C100 383.8884070000001 176.111593 460 270 460C363.888407 460 440 383.8884070000001 440 290C440 196.111593 363.888407 120 270 120C176.111593 120 100 196.111593 100 290zM420 290C420 372.842712 352.842712 440 270 440C187.157288 440 120 372.842712 120 290C120 207.157288 187.157288 140 270 140C352.842712 140 420 207.157288 420 290zM330 200L320 200C320 221.347921 298.241445 240 270.00709 240C241.760244 240 220 221.349083 220 200L210 200L200 200C200 233.136143 231.337993 260 270.00709 260C308.662007 260 340 233.136143 340 200L330 200zM200 330C200 368.6599320000001 231.340068 400 270 400C308.6599320000001 400 340 368.6599320000001 340 330C340 291.340068 308.6599320000001 260 270 260C231.340068 260 200 291.340068 200 330zM320 330C320 357.614237 297.614237 380 270 380C242.385763 380 220 357.614237 220 330C220 302.385763 242.385763 280 270 280C297.614237 280 320 302.385763 320 330z" />
    <glyph glyph-name="icon-explore-websites"
      unicode="&#xEA13;"
      horiz-adv-x="560" d=" M340 420L340 340L320 340L320 360L140 360L140 220L180 220L180 200L120 200L120 420L340 420zM140 400L140 380L320 380L320 400L140 400zM420 320L420 120L400 120L400 260L220 260L220 120L420 120L420 100L200 100L200 320L420 320zM220 300L220 280L400 280L400 300L220 300z" />
    <glyph glyph-name="icon-extensions"
      unicode="&#xEA14;"
      horiz-adv-x="560" d=" M160 269.999999L185.575417 269.999997L201.400863 269.999997L205.039572 254.598551C210.654537 230.832262 218.327962 213.695137 227.524397 203.134034C235.383273 194.10897 244.175793 190 255.238095 190L320 190L320 370L255.238095 370C240.391648 370 229.604868 365.562833 221.423758 356.554225C212.317021 346.526366 205.756412 330.146256 202.374772 307.096831L199.866453 290.000004L160 290.000001L160 269.999999zM140 250L140 310L182.586604 310.000003C190.411272 363.3333340000001 214.628436 390 255.238095 390L320 390C331.045695 390 340 381.045695 340 370L340 190C340 178.954305 331.045695 170 320 170L255.238095 170C221.396712 170 198.17582 196.666666 185.575417 249.999997L140 250z M340 310L390 310C395.522847 310 400 314.477153 400 320C400 325.522847 395.522847 330 390 330L340 330L340 310zM320 350L390 350C406.568542 350 420 336.568542 420 320C420 303.431458 406.568542 290 390 290L320 290L320 350z M340 230L390 230C395.522847 230 400 234.477153 400 240C400 245.522847 395.522847 250 390 250L340 250L340 230zM320 270L390 270C406.568542 270 420 256.568542 420 240C420 223.431458 406.568542 210 390 210L320 210L320 270z" />
    <glyph glyph-name="icon-file"
      unicode="&#xEA15;"
      horiz-adv-x="560" d=" M300 420L175.993013 420C172.688379 420 170 417.310245 170 413.9995380000001L170 146.000462C170 142.683491 172.683007 140 176.000166 140L383.999834 140C387.3109580000001 140 390 142.68933 390 145.998552L390 340L320.5 340C306.131142 340 300 345.918159 300 360L300 420zM330 440L410 360L410 145.998552C410 131.646312 398.359329 120 383.999834 120L176.000166 120C161.634305 120 150 131.640803 150 146.000462L150 413.9995380000001C150 428.350724 161.637468 440 175.993013 440L330 440zM380 360L319.977357 420L320 360L380 360z" />
    <glyph glyph-name="icon-folder"
      unicode="&#xEA16;"
      horiz-adv-x="560" d=" M400.001877 399.650122C422.086653 399.650122 440 381.741259 440 359.649556L440 179.890175C440 157.795214 422.0904 139.88961 399.99779 139.88961L160.00221 139.88961C137.904685 139.88961 120 157.799446 120 179.89235L120 420C120 420 217.550487 419.636708 219.495798 420C232.391568 420 289.637838 399.650122 289.637838 399.650122L400.001877 399.650122zM140 334.649656C145.884042 338.05252 152.715609 340 160.00221 340L399.99779 340C407.285111 340 414.11644 338.052727 420 334.650366L420 359.649556C420 370.69348 411.043042 379.650122 400.001877 379.650122L286.188763 379.650122L282.938916 380.805376C281.825633 381.19871 281.227255 381.408971 280.54836 381.646482C278.599591 382.32826 276.403147 383.08927 274.009206 383.909473C267.171342 386.2522350000001 260.137335 388.594397 253.315968 390.77378C251.282062 391.4236 249.294082 392.0501510000001 247.359005 392.650718C239.94528 394.9516280000001 233.485466 396.816455 228.311312 398.1270590000001C225.603675 398.812899 223.314715 399.329383 221.528436 399.6602010000001C220.735739 399.807008 220.082031 399.909674 219.594991 399.9683330000001C219.265596 400.003211 169.726526 399.86244 169.726526 399.86244L140 399.9683330000001L140 334.649656zM160.00221 320C148.953117 320 140 311.049492 140 300.0077L140 179.9923C140 168.94989 148.951348 160 160.00221 160L399.99779 160C411.046883 160 420 168.950508 420 179.9923L420 300.0077C420 311.05011 411.048652 320 399.99779 320L160.00221 320z" />
    <glyph glyph-name="icon-follow-folder-activity-big"
      unicode="&#xEA17;"
      horiz-adv-x="560" d=" M120 480L400 480C422.09139 480 440 462.09139 440 440L440 140C440 117.90861 422.09139 100 400 100L120 100C97.90861 100 80 117.90861 80 140L80 440C80 462.09139 97.90861 480 120 480zM120 440L120 140L400 140L400 440L120 440zM360 400L240 400L240 360L360 360L360 400zM200 400L160 400L160 360L200 360L200 400zM360 320L240 320L240 280L360 280L360 320zM200 320L160 320L160 280L200 280L200 320zM360 240L240 240L240 200L360 200L360 240zM200 240L160 240L160 200L200 200L200 240z" />
    <glyph glyph-name="icon-follow-folder-activity"
      unicode="&#xEA18;"
      horiz-adv-x="560" d=" M204 376L344 376C355.045695 376 364 367.045695 364 356L364 206C364 194.954305 355.045695 186 344 186L204 186C192.954305 186 184 194.954305 184 206L184 356C184 367.045695 192.954305 376 204 376zM204 356L204 206L344 206L344 356L204 356zM324 336L264 336L264 316L324 316L324 336zM244 336L224 336L224 316L244 316L244 336zM324 296L264 296L264 276L324 276L324 296zM244 296L224 296L224 276L244 276L244 296zM324 256L264 256L264 236L324 236L324 256zM244 256L224 256L224 236L244 236L244 256z" />
    <glyph glyph-name="icon-helpcenter-administer-workplace-companies"
      unicode="&#xEA19;"
      horiz-adv-x="560" d=" M420 190L420 330C420 346.54 406.55 360 390.01 360L169.99 360C153.45 360 140 346.54 140 330L140 190C140 173.46 153.45 160 169.99 160L390.01 160C406.55 160 420 173.46 420 190zM239.99 400C228.97 400 220 391.03 220 380L340 380C340 391.03 331.03 400 320.01 400L239.99 400zM225 273L340 273L340 253L225 253L225 273zM390.01 380C417.57 380 440 357.57 440 330L440 190C440 162.43 417.57 140 390.01 140L169.99 140C142.43 140 120 162.43 120 190L120 330C120 357.57 142.43 380 169.99 380L200 380C200 402.06 217.94 420 239.99 420L320.01 420C342.06 420 360 402.06 360 380L390.01 380z" />
    <glyph glyph-name="icon-helpcenter-manage-teams"
      unicode="&#xEA1A;"
      horiz-adv-x="560" d=" M276.322515 332.09642C279.6743860000001 326.287104 283.593501 320.846288 288.004184 315.84965C275.182297 307.109599 259.687854 302 243 302C198.81722 302 163 337.81722 163 382C163 426.18278 198.81722 462 243 462C259.687854 462 275.182297 456.890401 288.004184 448.15035C283.593501 443.153712 279.6743860000001 437.712896 276.322515 431.9035800000001C266.790674 438.281004 255.329646 442 243 442C209.862915 442 183 415.137085 183 382C183 348.862915 209.862915 322 243 322C255.329646 322 266.790674 325.718996 276.322515 332.09642z M313 250.996827C326.53299 257.765032 343.799307 262 363.010129 262C408.438807 262 443 238.298496 443 213.428571L463 213.428571C463 251.298449 418.231439 282 363.010129 282C343.769188 282 325.798798 278.275389 310.548126 271.82057C312.134062 267.513257 313 262.857754 313 258L313 250.996827z M363 302C318.81722 302 283 337.81722 283 382C283 426.18278 318.81722 462 363 462C407.18278 462 443 426.18278 443 382C443 337.81722 407.18278 302 363 302zM363 322C396.137085 322 423 348.862915 423 382C423 415.137085 396.137085 442 363 442C329.862915 442 303 415.137085 303 382C303 348.862915 329.862915 322 363 322z M118 278L273 278C284.045695 278 293 269.045695 293 258L293 118C293 106.954305 284.045695 98 273 98L118 98C106.954305 98 98 106.954305 98 118L98 258C98 269.045695 106.954305 278 118 278zM118 258L118 118L273 118L273 258L118 258z M139 197L139 177L253 177L253 197z" />
    <glyph glyph-name="icon-helpcenter-master-workplace"
      unicode="&#xEA1B;"
      horiz-adv-x="560" d=" M367.9326 177.7012C340.7476 165.3942 312.1906 159.2412 282.2586 159.2412C220.5146 159.2412 164.6166 185.4262 114.5626 237.7932L114.5626 306.0422L69.9996 330.7742L284.8276 450.0002L490.4636 330.7742L449.9546000000001 307.2872L449.9546000000001 237.7932C430.1926000000001 217.1162 409.5176 200.5212 387.9326 188.0092L387.9326 110.0002L367.9326 148.6962L367.9326 177.7012zM384.0256 295.5702L447.5546 332.5342L284.6116 427.0072L114.6756 332.6942L284.6046 237.7932L362.9426000000001 283.3182L277.9126 329.8722L262.9056 361.9132L384.0256 295.5702zM367.9326 263.0862L284.8196 214.7862L134.5626 298.5172L134.5626 245.9522C179.4906 201.1812 228.4606 179.2412 282.2586 179.2412C312.2746 179.2412 340.7866 186.0702 367.9326 199.8842L367.9326 263.0862zM387.9326 274.7092L387.9326 211.4872C402.3266 220.8912 416.3276 232.3712 429.9546000000001 245.9522L429.9546000000001 299.1462L413.6826 289.6742L387.9326 274.7092z" />
    <glyph glyph-name="icon-helpcenter-search_icon"
      unicode="&#xEA1C;"
      horiz-adv-x="560" d=" M316.806361 262.195236L384 195.001597L364.998403 176L297.804764 243.193639C286.119301 235.189797 271.979565 230.50754 256.7462300000001 230.50754C216.569595 230.50754 184 263.077135 184 303.25377C184 343.430405 216.569595 376 256.7462300000001 376C296.922865 376 329.49246 343.430405 329.49246 303.25377C329.49246 288.020435 324.810203 273.880699 316.806361 262.195236zM256.7462300000001 251.292177C285.443827 251.292177 308.707823 274.556173 308.707823 303.25377C308.707823 331.951367 285.443827 355.215363 256.7462300000001 355.215363C228.048633 355.215363 204.784637 331.951367 204.784637 303.25377C204.784637 274.556173 228.048633 251.292177 256.7462300000001 251.292177z" />
    <glyph glyph-name="icon-helpcenter-support-workplace"
      unicode="&#xEA1D;"
      horiz-adv-x="560" d=" M339.484 233.8257500000001C360.556 260.90075 360.564 299.05875 339.509 326.14275L386.485 372.70075C432.814 319.59075 432.741 240.07175 386.263 187.04675L339.484 233.8257500000001zM233.826 220.51675C260.912 199.43675 299.087 199.43675 326.174 220.51575L372.953 173.73575C319.843 127.18675 240.157 127.18675 187.047 173.73575L233.826 220.51675zM220.333 325.93775C199.436 298.86575 199.497 260.83375 220.516 233.8257500000001L173.737 187.04675C127.186 240.15575 127.186 319.84275 173.736 372.9527500000001L220.333 325.93775zM240.069 240.06875C218.016 262.12275 218.016 297.87775 240.069 319.93075C262.122 341.98375 297.878 341.98375 319.931 319.93075C341.984 297.87775 341.984 262.12275 319.931 240.06875C297.878 218.01675 262.122 218.01675 240.069 240.06875zM326.205 339.45975C299.038 360.6257500000001 260.701 360.57175 233.591 339.30075L187.046 386.26275C240.24 432.88775 320.0950000000001 432.81475 373.205 386.04175L326.205 339.45975zM166.863 393.13775C104.379 330.65275 104.379 229.34675 166.863 166.86275C229.347 104.37875 330.654 104.37875 393.137 166.86275C455.621 229.34675 455.621 330.65275 393.137 393.13775C330.654 455.62075 229.347 455.62075 166.863 393.13775z" />
    <glyph glyph-name="icon-helpcenter-use-workplace"
      unicode="&#xEA1E;"
      horiz-adv-x="560" d=" M340 156.5L340 143.03C340 141.07 339.96 140 338.04 140L224.98 140C223.24 140 220 140.94 220 143.03L220 156.5C220 158.48 221.6 160 223.5 160L336.5 160C338.28 160 340 158.61 340 156.5z M439.88 392.54L440 210.08C440 194.88 425.07 180 410.79 180L149.99 180C135.83 180 120.14 194.94 120.14 210.08L120 392.54C120 407.74 131.62 420 145.93 420L414.01 420C428.14 420 439.88 407.74 439.88 392.54zM139.991 240L419.89 240L419.89 400L139.991 400L139.991 240zM139.991 200L419.89 200L419.89 220L139.991 220L139.991 200z M225 308L340 308L340 328L225 328z" />
    <glyph glyph-name="icon-launch"
      unicode="&#xEA1F;"
      horiz-adv-x="560" d=" M131.362 308.408857C136.592 313.338857 139.046 314.972857 142.446 316.331857C149.397 319.103857 157.386 319.543857 194.705 319.483857C238.375 319.413857 265.125 327.193857 288.277 344.4128570000001C294.924 349.3648570000001 299.894 353.762857 310.395 363.6338570000001C315.175 368.1338570000001 316.917 369.754857 319.496 372.102857C326.405 378.392857 332.957 383.732857 339.0350000000001 388.1048570000001L366.476 360.6628570000001C362.103 354.582857 356.765 348.033857 350.475 341.123857C348.126 338.543857 346.506 336.803857 342.006 332.022857C332.148 321.522857 327.746 316.553857 322.796 309.9028570000001C305.564 286.753857 297.7850000000001 260.003857 297.855 216.334857C297.916 179.012857 297.476 171.022857 294.705 164.073857C293.3570000000001 160.673857 291.707 158.215857 286.777 152.996857L216.141 223.630857L258.615 266.094857L244.474 280.244857L202.002 237.7688570000001L131.362 308.408857zM159.645 223.643857L184.38 227.098857L205.472 206.009857L202.016 181.271857L159.645 223.643857zM216.215 138.791857L223.172 188.306857L286.851 124.627857L293.874 131.652857C306.544 144.322857 310.036 148.502857 313.2850000000001 156.662857C315.685 162.695857 316.865 169.504857 317.406 179.413857C317.836 187.125857 317.896 194.233857 317.855 216.362857C317.795 255.942857 324.3450000000001 278.503857 338.838 297.964857C343.185 303.8048570000001 362.814 324.972857 365.256 327.653857C380.125 343.972857 390.986 359.473857 396.683 373.063857C403.676 389.742857 403.177 404.372857 392.966 414.592857C382.756 424.803857 368.115 425.304857 351.436 418.303857C337.847 412.602857 322.347 401.742857 306.023 386.8838570000001C303.3450000000001 384.443857 282.175 364.803857 276.336 360.464857C256.875 345.973857 234.316 339.422857 194.737 339.482857C172.607 339.521857 165.497 339.463857 157.787 339.033857C147.885 338.494857 141.068 337.312857 135.046 334.9128570000001C126.877 331.6628570000001 122.695 328.174857 110.026 315.502857L103 308.478857L166.687 244.794857L117.166 237.843857L216.215 138.791857z" />
    <glyph glyph-name="icon-notifications"
      unicode="&#xEA20;"
      horiz-adv-x="560" d=" M280.0032 43.552C247.0432 43.552 220.1632 72 219.8432 104.992C220.4832 107.2 220.8032 109.76 220.8032 112L339.5232 112C339.5232 110.72 339.5232 108.832 339.8432 107.2C339.8432 72 312.9632 43.552 280.0032 43.552zM93.4432 144L129.6032 212.16C132.1632 216.64 133.4432 221.76 133.4432 227.2L133.4432 325.152C134.4032 401.28 190.4032 465.28 263.3632 473.92C269.7632 474.56 275.5232 477.152 280.0032 480.96C284.4832 477.152 290.2432 474.56 296.6112 473.92C369.8912000000001 465.28 425.6032 401.28 426.5632 325.76L426.5632 227.2C426.5632 221.76 427.8432 216.64 430.4032000000001 212.16L466.5632 144L93.4432 144zM520.0032 112L458.5632 227.2L458.5632 325.76C457.2832 418.88 388.8032 495.36 300.4832 505.6L300.4832 560L259.5232 560L259.5232 505.6C171.1712 495.36 102.7232 418.88 101.4432 325.76L101.4432 227.2L40.0032 112L188.4832 112C188.1632 110.432 188.1632 108.832 188.1632 107.2C188.1632 54.432 229.1232 11.552 280.0032 11.552C330.8832 11.552 371.8432 54.432 371.8432 107.2C371.8432 108.832 371.8432 110.432 371.5232 112L520.0032 112z" />
    <glyph glyph-name="icon-password"
      unicode="&#xEA21;"
      horiz-adv-x="560" d=" M130 280C130 263.4314575050762 143.4314575050762 250 160 250C176.5685424949238 250 190 263.4314575050762 190 280C190 296.5685424949238 176.5685424949238 310 160 310C143.4314575050762 310 130 296.5685424949238 130 280z M250 280C250 263.4314575050762 263.4314575050762 250 280 250C296.5685424949238 250 310 263.4314575050762 310 280C310 296.5685424949238 296.5685424949238 310 280 310C263.4314575050762 310 250 296.5685424949238 250 280z M390 170L410 170L410 390L390 390L390 170zM370 410L430 410L430 150L370 150L370 410z" />
    <glyph glyph-name="icon-profile"
      unicode="&#xEA22;"
      horiz-adv-x="560" d=" M150 400C138.954305 400 130 391.045695 130 380L130 180C130 168.954305 138.954305 160 150 160L410 160C421.045695 160 430 168.954305 430 180L430 380C430 391.045695 421.045695 400 410 400L150 400zM150 420L410 420C432.09139 420 450 402.09139 450 380L450 180C450 157.90861 432.09139 140 410 140L150 140C127.90861 140 110 157.90861 110 180L110 380C110 402.09139 127.90861 420 150 420z M270 200C270 222.090901 252.092715 240 230.006077 240C207.9085379 240 190 222.092154 190 200L170 200C170 233.136143 196.8611364 260 230.006077 260C263.138864 260 290 233.136143 290 200L270 200zM290 200L270 200C270 222.090901 252.092715 240 230.006077 240C207.9085379 240 190 222.092154 190 200L170 200C170 233.136143 196.8611364 260 230.006077 260C263.138864 260 290 233.136143 290 200z M230 260C252.09139 260 270 277.90861 270 300C270 322.09139 252.09139 340 230 340C207.90861 340 190 322.09139 190 300C190 277.90861 207.90861 260 230 260zM230 240C196.862915 240 170 266.862915 170 300C170 333.137085 196.862915 360 230 360C263.137085 360 290 333.137085 290 300C290 266.862915 263.137085 240 230 240z M310 320L390 320L390 340L310 340z M310 280L390 280L390 300L310 300z" />
    <glyph glyph-name="icon-pulse"
      unicode="&#xEA23;"
      horiz-adv-x="560" d=" M60 240C48.954305 240 40 248.954305 40 260C40 271.045695 48.954305 280 60 280L155.384615 280C162.520626 280 169.116044 276.197856 172.692091 270.022539C197.440934 227.284866 217.182923 191.902129 231.939991 163.823967C234.834321 190.618788 238.759393 221.28467 243.589636 255.32406C246.112516 273.103141 248.850471 291.557527 251.771028 310.5411440000001C257.342429 346.7552520000001 263.309678 383.191637 269.276967 418.061101C271.365695 430.266443 273.305566 441.406007 275.047055 451.255594C275.657114 454.705997 276.19898 457.749673 276.666459 460.3585825C276.830396 461.2734866 276.973413 462.0691701 277.094733 462.7421275C280.822583 483.3048905 307.988312 486.0749765 315.476965 467.4668087C318.630589 459.63053 319.388004 457.192795 328.649992 426.2443560000001C335.59996 403.021409 340.58431 387.530116 346.562853 371.465512C368.67714 312.043472 393.376484 280 420 280L500 280C511.045695 280 520 271.045695 520 260C520 248.954305 511.045695 240 500 240L420 240C392.295377 240 368.67267 254.6876690000001 348.820147 280.443162C333.70489 300.052806 320.92058 325.6838370000001 309.074755 357.5140800000001C306.845556 363.504032 304.757478 369.384515 302.675888 375.530865C298.788883 352.079184 294.960729 328.215275 291.305895 304.458856C288.408145 285.623475 285.692904 267.32219 283.192897 249.704295C272.33761 173.205595 266.153846 114.06424 266.153846 80C266.153846 53.333333 226.153846 53.333333 226.153846 80C226.002805 80.513522 225.798778 81.37113 225.496779 82.434237C224.762411 85.019374 223.566964 88.410901 221.915916 92.530994C218.378397 101.358668 212.931169 113.091168 205.603625 127.62206C191.648351 155.296079 171.049653 192.780913 143.840877 240L60 240z" />
    <glyph glyph-name="icon-recent"
      unicode="&#xEA24;"
      horiz-adv-x="560" d=" M210 140C248.659932 140 280 171.340068 280 210C280 248.6599320000001 248.659932 280 210 280C171.340068 280 140 248.6599320000001 140 210C140 171.340068 171.340068 140 210 140zM210 120C160.294373 120 120 160.294373 120 210C120 259.705627 160.294373 300 210 300C259.705627 300 300 259.705627 300 210C300 160.294373 259.705627 120 210 120z M200 260L200 220L220 220L220 260z M260 220L200 220L200 200L260 200z M280.013085 420L166.045352 420C162.740718 420 160.052339 417.310245 160.052339 413.9995380000001L160.052339 327.5C160.052339 327.5 146.242809 317.2915950000001 140.020487 309.081641L140 414C140 428.351186 151.644455 440 166 440L310 440L400 360L400 145.998552C400 131.646312 388.411668 120 374.052173 120L296.014413 120C301.123959 127.84587 306 140 306 140L374.052173 140C377.363297 140 380 142.69124 380 146.000462L380.050019 340L300.552339 340C286.183481 340 280.052339 345.918159 280.052339 360L280.013085 420zM370 360L300.052339 420L300.052339 360L370 360z" />
    <glyph glyph-name="icon-shared"
      unicode="&#xEA25;"
      horiz-adv-x="560" d=" M219.956952 419.954805L219.956952 420L399.860093 420L399.860093 243.676428C399.952099 243.1313380000001 400 242.571263 400 242C400 241.428737 399.952099 240.868662 399.860093 240.323572L399.860093 240.090041L399.817809 240.090041C398.926374 235.480775 394.8696760000001 232 390 232C385.130324 232 381.073626 235.480775 380.182191 240.090041L379.870855 240.090041L379.870855 384.921798L186.84107 192.381168L172.706545 206.51623L366.691896 400.010005L219.956952 400.010005L219.956952 400.0451950000001C219.641996 400.0152930000001 219.322784 400 219 400C213.477153 400 209 404.477153 209 410C209 415.522847 213.477153 420 219 420C219.322784 420 219.641996 419.984707 219.956952 419.954805z M140 140L399.860093 140L399.860093 160L140 160z" />
    <glyph glyph-name="icon-slash"
      unicode="&#xEA26;"
      horiz-adv-x="560" d=" M80 439.996539L80 120.003461C80 97.904067 97.9056983 80 120.003461 80L439.996539 80C462.095933 80 480 97.905698 480 120.003461L480 439.996539C480 462.0959333 462.094302 480 439.996539 480L120.003461 480C97.9040667 480 80 462.0943017 80 439.996539zM40 439.996539C40 484.1812306 75.8082158 520 120.003461 520L439.996539 520C484.181231 520 520 484.1917842 520 439.996539L520 120.003461C520 75.818769 484.191784 40 439.996539 40L120.003461 40C75.8187694 40 40 75.808216 40 120.003461L40 439.996539z M174.142136 145.857864L414.142136 385.857864L385.857864 414.142136L145.857864 174.142136z" />
    <glyph glyph-name="icon-theme"
      unicode="&#xEA27;"
      horiz-adv-x="560" d=" M330 430L259.77 234.911L210 370.001L140 180L200 180L200 140L220 140L220 180L320 180L320 140L340 140L340 180L420 180L330 430zM270.52 205.731L330 370.95L391.54 200.001L268.46 200.001L270.52 205.731zM210 312.15L249.24 205.661L251.32 200.001L168.68 200.001L210 312.15z M320 141C320 135.4771525016921 324.4771525016921 131 330 131C335.522847498308 131 340 135.4771525016921 340 141C340 146.522847498308 335.522847498308 151 330 151C324.4771525016921 151 320 146.522847498308 320 141z M200 141C200 135.4771525016921 204.4771525016921 131 210 131C215.5228474983079 131 220 135.4771525016921 220 141C220 146.522847498308 215.5228474983079 151 210 151C204.4771525016921 151 200 146.522847498308 200 141z" />
    <glyph glyph-name="icon-websites"
      unicode="&#xEA28;"
      horiz-adv-x="560" d=" M120 140L440 140L440 420L120 420L120 140zM140 380L420 380L420 360L140 360L140 380zM140 159.999L140 400L420 400L420 159.999" />
  </font>
</defs>
</svg>
